# xmcd CD database file
#
# Track frame offsets:
#	187
#	23487
#	42720
#
# Disc length: 876 seconds
#
# Revision: 0
# Processed by: cddbd v1.5.1PL2 Copyright (c) Steve Scherf et al.
# Submitted via: CDex 1.50
#
DISCID=1d036a03
DTITLE=シャ乱Q - パワーソング
DYEAR=1997
DGENRE=J-pop
TTITLE0=パワーソング
TTITLE1=さよならナンシー
TTITLE2=パワーソング（オリジナルカラオケ）
EXTD=YEAR: 1997
EXTT0=
EXTT1=
EXTT2=
PLAYORDER=
